<svg width="635" height="540" viewBox="0 0 635 540" fill="none" xmlns="http://www.w3.org/2000/svg">
<g filter="url(#filter0_d)">
<path fill-rule="evenodd" clip-rule="evenodd" d="M294.911 1.25458C340.821 4.7434 372.943 45.5857 413.633 67.1314C456.141 89.6397 513.674 91.0223 540.208 131.141C566.759 171.287 558.513 225.458 549.633 272.763C541.651 315.28 509.819 347.163 492.234 386.687C472.187 431.747 480.486 495.628 438.773 521.938C397.394 548.038 343.68 515.023 294.911 511.148C250.388 507.611 202.733 521.734 163.669 500.081C124.458 478.346 110.024 431.072 84.2579 394.384C55.8601 353.95 5.12783 322.161 4.01919 272.763C2.91238 223.447 49.9474 188.012 78.7271 147.949C104.849 111.586 128.246 73.3992 165.294 48.2595C203.983 22.0064 248.29 -2.28829 294.911 1.25458Z" fill="#003CE6"/>
<path fill-rule="evenodd" clip-rule="evenodd" d="M375.45 16.6587C414.521 9.31435 440.363 59.4865 476.419 76.2336C517.006 95.0856 571.596 87.0167 600.494 121.187C629.421 155.39 638.703 208.693 624.321 251.116C610.065 293.167 560.714 309.827 526.82 338.51C503.985 357.834 478.487 371.647 457.134 392.596C426.912 422.246 413.569 468.591 375.45 487.013C330.967 508.511 269.304 532.737 230.543 502.103C189.599 469.742 226.497 397.281 202.974 350.695C181.495 308.155 92.8997 297.505 103.814 251.116C116.205 198.45 200.705 207.497 244.228 175.355C266.576 158.851 276.548 131.887 294.251 110.476C321.064 78.0503 334.099 24.4317 375.45 16.6587Z" fill="#F24151"/>
</g>
<defs>
<filter id="filter0_d" x="0" y="0.909424" width="634.994" height="538.986" filterUnits="userSpaceOnUse" color-interpolation-filters="sRGB">
<feFlood flood-opacity="0" result="BackgroundImageFix"/>
<feColorMatrix in="SourceAlpha" type="matrix" values="0 0 0 0 0 0 0 0 0 0 0 0 0 0 0 0 0 0 127 0"/>
<feOffset dy="4"/>
<feGaussianBlur stdDeviation="2"/>
<feColorMatrix type="matrix" values="0 0 0 0 0 0 0 0 0 0 0 0 0 0 0 0 0 0 0.25 0"/>
<feBlend mode="normal" in2="BackgroundImageFix" result="effect1_dropShadow"/>
<feBlend mode="normal" in="SourceGraphic" in2="effect1_dropShadow" result="shape"/>
</filter>
</defs>
</svg>
