<svg width="475" height="172" viewBox="0 0 475 172" fill="none" xmlns="http://www.w3.org/2000/svg">
<path d="M0 125.61L2.95209 123.766L5.90411 146.259L8.85617 148.563L11.8083 124.644L14.7603 121.221L17.7123 131.096L20.6644 126.553L23.6165 107.944L26.5685 156.924L29.5206 147.576L32.4727 120.431L35.4247 129.318L38.3768 162.081L41.3288 121.287L44.2809 114.55L47.2329 166.097L50.185 160.435L53.1371 151.943L56.0891 148.3L59.0412 114.945L61.9933 136.735L64.9453 148.915L67.8973 93.8122L70.8494 111.785L73.8015 127.475L76.7535 111.412L79.7056 165.548L82.6577 125.675L85.6097 89.8403L88.5618 97.5427L91.5138 130.876L94.4659 119.729L97.4179 135.133L100.37 126.97L103.322 133.093L106.274 111.346L109.226 134.519L112.178 153.369L115.13 172L118.082 166.097L121.034 146.171L123.986 81.1284L126.939 95.4141L129.891 116.92L132.843 89.6428L135.795 121.396L138.747 97.7402L141.699 111.719L144.651 112.684L147.603 113.299L150.555 105.75L153.507 81.282L156.459 69.9367L159.411 87.6239L162.363 71.5826L165.315 98.0036L168.267 62.1245L171.219 139.127L174.171 150.363L177.124 102.656L180.076 81.1722L183.028 76.8273L185.98 76.2348L188.932 66.1403L191.884 73.9087L194.836 101.581L197.788 68.5981L200.74 91.0911L203.692 60.8079L206.644 63.112L209.596 97.9377L212.548 94.5583L215.5 98.1352L218.452 81.4136L221.404 83.257L224.356 66.9303L227.308 75.4228L230.261 64.0995L233.213 79.4167L236.165 77.5953L239.117 80.7334L242.069 47.6851L245.021 53.3687L247.973 71.0559L250.925 65.504L253.877 74.9839L256.829 56.4409L259.781 72.8334L262.733 59.0084L265.685 58.394L268.637 64.319L271.466 68.4884L274.418 57.2968L277.37 62.322L280.323 57.3406L283.275 49.6162L286.227 71.8459L289.179 62.739L292.131 64.7579L295.083 70.2001L298.035 54.0271L300.987 100.703L303.939 103.687L306.891 94.0097L309.843 84.2225L312.795 65.3723L315.747 87.4703L318.699 56.7482L321.651 70.5731L324.603 142.507L327.555 117.688L330.508 74.6328L333.46 68.269L336.412 54.6854L339.364 97.4989L342.316 98.4644L345.268 84.5517L348.22 51.3279L351.172 67.6326L354.124 85.3636L357.076 71.4728L360.028 45.9296L362.98 40.7288L365.932 60.4568L368.884 51.1523L371.836 51.4376L374.788 58.6134L377.74 38.1393L380.693 35.506L383.645 66.5792L386.597 41.6504L389.549 49.2212L392.501 66.3159L395.453 79.3947L398.405 88.4358L401.357 54.7732L404.309 46.5001L407.261 62.4537L410.213 99.1666L413.165 76.7175L416.117 81.3259L419.069 83.1033L422.021 53.6759L424.973 41.2993L427.925 46.2149L430.878 48.8043L433.83 36.296L436.782 25.653L439.734 63.4631L442.686 104.082L445.638 80.5359L448.59 57.9551L451.542 65.9428L454.494 36.7349L457.446 11.455L460.398 0L463.35 5.13498L466.302 24.2924L469.254 33.5749L472.206 28.023L475 11.7841V172H472.206H469.254H466.302H463.35H460.398H457.446H454.494H451.542H448.59H445.638H442.686H439.734H436.782H433.83H430.878H427.925H424.973H422.021H419.069H416.117H413.165H410.213H407.261H404.309H401.357H398.405H395.453H392.501H389.549H386.597H383.645H380.693H377.74H374.788H371.836H368.884H365.932H362.98H360.028H357.076H354.124H351.172H348.22H345.268H342.316H339.364H336.412H333.46H330.508H327.555H324.603H321.651H318.699H315.747H312.795H309.843H306.891H303.939H300.987H298.035H295.083H292.131H289.179H286.227H283.275H280.323H277.37H274.418H271.466H268.637H265.685H262.733H259.781H256.829H253.877H250.925H247.973H245.021H242.069H239.117H236.165H233.213H230.261H227.308H224.356H221.404H218.452H215.5H212.548H209.596H206.644H203.692H200.74H197.788H194.836H191.884H188.932H185.98H183.028H180.076H177.124H174.171H171.219H168.267H165.315H162.363H159.411H156.459H153.507H150.555H147.603H144.651H141.699H138.747H135.795H132.843H129.891H126.939H123.986H121.034H118.082H115.13H112.178H109.226H106.274H103.322H100.37H97.4179H94.4659H91.5138H88.5618H85.6097H82.6577H79.7056H76.7535H73.8015H70.8494H67.8973H64.9453H61.9933H59.0412H56.0891H53.1371H50.185H47.2329H44.2809H41.3288H38.3768H35.4247H32.4727H29.5206H26.5685H23.6165H20.6644H17.7123H14.7603H11.8083H8.85617H5.90411H2.95209H0V125.61Z" fill="url(#paint0_linear)"/>
<defs>
<linearGradient id="paint0_linear" x1="475" y1="86" x2="0" y2="86" gradientUnits="userSpaceOnUse">
<stop offset="0.9999" stop-color="#F8F5F5"/>
<stop offset="1" stop-color="white" stop-opacity="0.12"/>
</linearGradient>
</defs>
</svg>
